<?xml version="1.0" encoding="UTF-8"?>
<!DOCTYPE svg PUBLIC "-//W3C//DTD SVG 1.1//EN" "http://www.w3.org/Graphics/SVG/1.1/DTD/svg11.dtd">
<svg xmlns="http://www.w3.org/2000/svg" version="1.1" width="800px" height="475px" style="shape-rendering:geometricPrecision; text-rendering:geometricPrecision; image-rendering:optimizeQuality; fill-rule:evenodd; clip-rule:evenodd" xmlns:xlink="http://www.w3.org/1999/xlink">
<g><path style="opacity:0.847" fill="#95c439" d="M 398.5,-0.5 C 399.167,-0.5 399.833,-0.5 400.5,-0.5C 453.288,61.5178 478.288,133.518 475.5,215.5C 475.443,216.609 475.11,217.609 474.5,218.5C 431.597,267.336 406.93,324.336 400.5,389.5C 399.833,389.5 399.167,389.5 398.5,389.5C 392.414,324.175 367.748,267.175 324.5,218.5C 323.89,217.609 323.557,216.609 323.5,215.5C 320.707,133.536 345.707,61.5357 398.5,-0.5 Z"/></g>
<g><path style="opacity:0.847" fill="#73982e" d="M 323.5,215.5 C 323.557,216.609 323.89,217.609 324.5,218.5C 324.335,221.518 324.502,224.518 325,227.5C 325.654,226.304 326.154,226.304 326.5,227.5C 325.729,230.796 325.396,233.963 325.5,237C 326.167,237.667 326.833,238.333 327.5,239C 327.056,240.533 326.723,242.033 326.5,243.5C 328.367,244.797 328.7,246.297 327.5,248C 328.782,252.752 329.615,257.585 330,262.5C 331.961,265.31 333.127,268.144 333.5,271C 333.167,272 332.833,273 332.5,274C 333.607,278.379 335.274,282.046 337.5,285C 337.043,285.414 336.709,285.914 336.5,286.5C 348.168,325.574 368.168,362.24 396.5,396.5C 345.873,353.345 286.539,329.345 218.5,324.5C 217.609,323.89 216.609,323.557 215.5,323.5C 155.443,267.711 122.443,198.711 116.5,116.5C 198.718,122.447 267.718,155.447 323.5,215.5 Z"/></g>
<g><path style="opacity:0.847" fill="#73982d" d="M 583.5,323.5 C 582.391,323.557 581.391,323.89 580.5,324.5C 533.369,327.267 489.369,340.433 448.5,364C 433.444,372.908 419.111,382.741 405.5,393.5C 446.62,342.268 469.62,283.935 474.5,218.5C 475.11,217.609 475.443,216.609 475.5,215.5C 531.282,155.447 600.282,122.447 682.5,116.5C 676.557,198.711 643.557,267.711 583.5,323.5 Z"/></g>
<g><path style="opacity:0.976" fill="#789e2f" d="M 324.5,218.5 C 367.748,267.175 392.414,324.175 398.5,389.5C 398.706,397.301 399.372,397.301 400.5,389.5C 406.93,324.336 431.597,267.336 474.5,218.5C 469.62,283.935 446.62,342.268 405.5,393.5C 404.167,395.5 402.5,397.167 400.5,398.5C 398.801,398.473 397.467,397.806 396.5,396.5C 368.168,362.24 348.168,325.574 336.5,286.5C 336.709,285.914 337.043,285.414 337.5,285C 335.274,282.046 333.607,278.379 332.5,274C 332.833,273 333.167,272 333.5,271C 333.127,268.144 331.961,265.31 330,262.5C 329.615,257.585 328.782,252.752 327.5,248C 328.7,246.297 328.367,244.797 326.5,243.5C 326.723,242.033 327.056,240.533 327.5,239C 326.833,238.333 326.167,237.667 325.5,237C 325.396,233.963 325.729,230.796 326.5,227.5C 326.154,226.304 325.654,226.304 325,227.5C 324.502,224.518 324.335,221.518 324.5,218.5 Z"/></g>
<g><path style="opacity:0.846" fill="#376810" d="M 215.5,323.5 C 216.609,323.557 217.609,323.89 218.5,324.5C 270.352,370.137 331.019,395.137 400.5,399.5C 469.48,394.225 529.48,369.225 580.5,324.5C 581.391,323.89 582.391,323.557 583.5,323.5C 665.497,320.717 737.497,345.717 799.5,398.5C 799.5,399.167 799.5,399.833 799.5,400.5C 751.347,441.786 695.68,466.453 632.5,474.5C 610.5,474.5 588.5,474.5 566.5,474.5C 503.35,466.46 447.683,441.793 399.5,400.5C 351.317,441.793 295.65,466.46 232.5,474.5C 210.5,474.5 188.5,474.5 166.5,474.5C 103.32,466.453 47.6532,441.786 -0.5,400.5C -0.5,399.833 -0.5,399.167 -0.5,398.5C 61.5166,345.713 133.517,320.713 215.5,323.5 Z"/></g>
<g><path style="opacity:0.975" fill="#6b9229" d="M 218.5,324.5 C 286.539,329.345 345.873,353.345 396.5,396.5C 397.467,397.806 398.801,398.473 400.5,398.5C 400.5,398.833 400.5,399.167 400.5,399.5C 331.019,395.137 270.352,370.137 218.5,324.5 Z"/></g>
<g><path style="opacity:0.976" fill="#3f6f13" d="M 580.5,324.5 C 529.48,369.225 469.48,394.225 400.5,399.5C 400.5,399.167 400.5,398.833 400.5,398.5C 402.5,397.167 404.167,395.5 405.5,393.5C 419.111,382.741 433.444,372.908 448.5,364C 489.369,340.433 533.369,327.267 580.5,324.5 Z"/></g>
<g><path style="opacity:0.922" fill="#87b234" d="M 398.5,389.5 C 399.167,389.5 399.833,389.5 400.5,389.5C 399.372,397.301 398.706,397.301 398.5,389.5 Z"/></g>
</svg>
