<svg xmlns="http://www.w3.org/2000/svg" xmlns:xlink="http://www.w3.org/1999/xlink" width="146" zoomAndPan="magnify" viewBox="0 0 109.5 56.249996" height="75" preserveAspectRatio="xMidYMid meet" version="1.0"><defs><g/><clipPath id="610ab3332f"><path d="M 88 6 L 108.53125 6 L 108.53125 37 L 88 37 Z M 88 6 " clip-rule="nonzero"/></clipPath></defs><g fill="#35323d" fill-opacity="1"><g transform="translate(0.845443, 36.397473)"><g><path d="M 20.203125 -14.8125 C 21.335938 -14.132812 22.203125 -13.265625 22.796875 -12.203125 C 23.390625 -11.148438 23.6875 -9.9375 23.6875 -8.5625 C 23.6875 -7.257812 23.375 -6.046875 22.75 -4.921875 C 22.132812 -3.804688 21.257812 -2.816406 20.125 -1.953125 C 19.09375 -1.160156 17.921875 -0.554688 16.609375 -0.140625 C 15.296875 0.273438 13.910156 0.5 12.453125 0.53125 C 10.992188 0.53125 9.597656 0.328125 8.265625 -0.078125 C 6.941406 -0.484375 5.769531 -1.09375 4.75 -1.90625 C 3.207031 -3.070312 2.148438 -4.476562 1.578125 -6.125 L 7.265625 -8.765625 C 7.265625 -8.492188 7.359375 -8.15625 7.546875 -7.75 C 7.734375 -7.34375 8.03125 -6.945312 8.4375 -6.5625 C 8.84375 -6.1875 9.367188 -5.863281 10.015625 -5.59375 C 10.671875 -5.320312 11.46875 -5.1875 12.40625 -5.1875 C 13.164062 -5.1875 13.835938 -5.28125 14.421875 -5.46875 C 15.003906 -5.664062 15.488281 -5.90625 15.875 -6.1875 C 16.269531 -6.46875 16.566406 -6.789062 16.765625 -7.15625 C 16.972656 -7.519531 17.078125 -7.894531 17.078125 -8.28125 C 17.078125 -8.707031 16.929688 -9.109375 16.640625 -9.484375 C 16.359375 -9.867188 15.921875 -10.171875 15.328125 -10.390625 C 14.242188 -10.765625 13.097656 -11.078125 11.890625 -11.328125 C 10.691406 -11.585938 9.523438 -11.914062 8.390625 -12.3125 C 7.253906 -12.707031 6.195312 -13.226562 5.21875 -13.875 C 4.25 -14.519531 3.484375 -15.425781 2.921875 -16.59375 C 2.410156 -17.613281 2.15625 -18.707031 2.15625 -19.875 C 2.15625 -21.175781 2.457031 -22.429688 3.0625 -23.640625 C 3.664062 -24.859375 4.5 -25.890625 5.5625 -26.734375 C 6.5625 -27.515625 7.679688 -28.113281 8.921875 -28.53125 C 10.171875 -28.957031 11.484375 -29.171875 12.859375 -29.171875 C 14.234375 -29.171875 15.550781 -28.96875 16.8125 -28.5625 C 18.070312 -28.15625 19.203125 -27.554688 20.203125 -26.765625 C 21.171875 -26.035156 21.941406 -25.1875 22.515625 -24.21875 L 17.890625 -21.046875 C 17.316406 -21.835938 16.601562 -22.46875 15.75 -22.9375 C 14.90625 -23.40625 13.957031 -23.640625 12.90625 -23.640625 C 11.4375 -23.640625 10.300781 -23.316406 9.5 -22.671875 C 8.707031 -22.023438 8.3125 -21.175781 8.3125 -20.125 C 8.3125 -19.632812 8.535156 -19.195312 8.984375 -18.8125 C 9.429688 -18.4375 10.007812 -18.097656 10.71875 -17.796875 C 11.4375 -17.503906 12.242188 -17.242188 13.140625 -17.015625 C 14.035156 -16.785156 14.921875 -16.554688 15.796875 -16.328125 C 16.679688 -16.097656 17.515625 -15.859375 18.296875 -15.609375 C 19.078125 -15.367188 19.710938 -15.101562 20.203125 -14.8125 Z M 20.203125 -14.8125 "/></g></g></g><g fill="#35323d" fill-opacity="1"><g transform="translate(25.828042, 36.397473)"><g><path d="M 9.25 -7.21875 C 9.25 -6.269531 9.539062 -5.539062 10.125 -5.03125 C 10.707031 -4.519531 11.46875 -4.265625 12.40625 -4.265625 C 13.164062 -4.265625 13.925781 -4.410156 14.6875 -4.703125 L 14.6875 0 C 14.007812 0.21875 13.289062 0.398438 12.53125 0.546875 C 11.769531 0.691406 11.015625 0.765625 10.265625 0.765625 C 9.398438 0.765625 8.570312 0.65625 7.78125 0.4375 C 7 0.226562 6.296875 -0.132812 5.671875 -0.65625 C 5.054688 -1.1875 4.566406 -1.890625 4.203125 -2.765625 C 3.835938 -3.648438 3.65625 -4.742188 3.65625 -6.046875 L 3.65625 -15.125 L 0.765625 -15.125 L 0.765625 -18.90625 L 3.65625 -20.125 L 3.65625 -24.625 L 9.25 -24.625 L 9.25 -20.125 L 14.6875 -20.125 L 14.6875 -15.125 L 9.25 -15.125 Z M 9.25 -7.21875 "/></g></g></g><g fill="#35323d" fill-opacity="1"><g transform="translate(41.361053, 36.397473)"><g><path d="M 22.875 -20.125 L 22.875 0 L 18.046875 0 L 17.484375 -2.15625 C 16.703125 -1.09375 15.757812 -0.382812 14.65625 -0.03125 C 13.5625 0.3125 12.421875 0.484375 11.234375 0.484375 C 9.804688 0.484375 8.488281 0.207031 7.28125 -0.34375 C 6.070312 -0.894531 5.019531 -1.648438 4.125 -2.609375 C 3.238281 -3.578125 2.546875 -4.703125 2.046875 -5.984375 C 1.546875 -7.265625 1.296875 -8.632812 1.296875 -10.09375 C 1.296875 -11.5625 1.546875 -12.9375 2.046875 -14.21875 C 2.546875 -15.5 3.238281 -16.617188 4.125 -17.578125 C 5.019531 -18.546875 6.070312 -19.304688 7.28125 -19.859375 C 8.488281 -20.410156 9.804688 -20.6875 11.234375 -20.6875 C 12.535156 -20.6875 13.722656 -20.484375 14.796875 -20.078125 C 15.878906 -19.671875 16.773438 -19.019531 17.484375 -18.125 L 18.046875 -20.125 Z M 17.28125 -10.015625 C 17.28125 -11.066406 17.132812 -11.953125 16.84375 -12.671875 C 16.5625 -13.390625 16.1875 -13.972656 15.71875 -14.421875 C 15.25 -14.867188 14.695312 -15.191406 14.0625 -15.390625 C 13.425781 -15.597656 12.738281 -15.703125 12 -15.703125 C 11.269531 -15.703125 10.585938 -15.550781 9.953125 -15.25 C 9.316406 -14.957031 8.753906 -14.554688 8.265625 -14.046875 C 7.785156 -13.546875 7.410156 -12.953125 7.140625 -12.265625 C 6.867188 -11.578125 6.734375 -10.851562 6.734375 -10.09375 C 6.734375 -9.3125 6.867188 -8.582031 7.140625 -7.90625 C 7.410156 -7.226562 7.785156 -6.640625 8.265625 -6.140625 C 8.753906 -5.640625 9.316406 -5.238281 9.953125 -4.9375 C 10.585938 -4.644531 11.269531 -4.5 12 -4.5 C 13.46875 -4.5 14.707031 -4.953125 15.71875 -5.859375 C 16.726562 -6.765625 17.25 -8.148438 17.28125 -10.015625 Z M 17.28125 -10.015625 "/></g></g></g><g fill="#35323d" fill-opacity="1"><g transform="translate(66.019205, 36.397473)"><g><path d="M 11.71875 -15.703125 C 11.039062 -15.703125 10.40625 -15.546875 9.8125 -15.234375 C 9.21875 -14.921875 8.695312 -14.5 8.25 -13.96875 C 7.800781 -13.445312 7.445312 -12.832031 7.1875 -12.125 C 6.9375 -11.425781 6.8125 -10.671875 6.8125 -9.859375 C 6.8125 -9.046875 6.9375 -8.304688 7.1875 -7.640625 C 7.445312 -6.984375 7.800781 -6.414062 8.25 -5.9375 C 8.695312 -5.46875 9.21875 -5.097656 9.8125 -4.828125 C 10.40625 -4.554688 11.039062 -4.421875 11.71875 -4.421875 C 12.5625 -4.421875 13.378906 -4.613281 14.171875 -5 C 14.972656 -5.394531 15.65625 -5.945312 16.21875 -6.65625 L 19.671875 -3.25 C 18.722656 -2.113281 17.554688 -1.207031 16.171875 -0.53125 C 14.796875 0.144531 13.3125 0.484375 11.71875 0.484375 C 10.257812 0.484375 8.894531 0.207031 7.625 -0.34375 C 6.351562 -0.894531 5.242188 -1.648438 4.296875 -2.609375 C 3.347656 -3.578125 2.597656 -4.703125 2.046875 -5.984375 C 1.492188 -7.265625 1.21875 -8.632812 1.21875 -10.09375 C 1.21875 -11.5625 1.492188 -12.9375 2.046875 -14.21875 C 2.597656 -15.5 3.347656 -16.617188 4.296875 -17.578125 C 5.242188 -18.546875 6.351562 -19.304688 7.625 -19.859375 C 8.894531 -20.410156 10.257812 -20.6875 11.71875 -20.6875 C 13.375 -20.6875 14.90625 -20.332031 16.3125 -19.625 C 17.71875 -18.925781 18.90625 -17.96875 19.875 -16.75 L 15.984375 -13.75 C 15.203125 -14.476562 14.492188 -14.984375 13.859375 -15.265625 C 13.222656 -15.554688 12.507812 -15.703125 11.71875 -15.703125 Z M 11.71875 -15.703125 "/></g></g></g><g clip-path="url(#610ab3332f)"><g fill="#35323d" fill-opacity="1"><g transform="translate(86.90563, 36.397473)"><g><path d="M 12.984375 -11.765625 L 21.453125 0 L 14.765625 0 L 9.453125 -8.03125 L 7.46875 -5.875 L 7.46875 0 L 1.859375 0 L 1.859375 -29.609375 L 7.46875 -29.609375 L 7.46875 -13.1875 L 14 -20.125 L 20.8125 -20.125 Z M 12.984375 -11.765625 "/></g></g></g></g><g fill="#35323d" fill-opacity="1"><g transform="translate(25.634298, 53.560018)"><g><path d="M 3.890625 -1.6875 C 3.890625 -1.9375 3.800781 -2.125 3.625 -2.25 C 3.457031 -2.382812 3.144531 -2.523438 2.6875 -2.671875 C 2.226562 -2.828125 1.863281 -2.972656 1.59375 -3.109375 C 0.863281 -3.503906 0.5 -4.035156 0.5 -4.703125 C 0.5 -5.046875 0.597656 -5.351562 0.796875 -5.625 C 0.992188 -5.90625 1.273438 -6.117188 1.640625 -6.265625 C 2.003906 -6.421875 2.410156 -6.5 2.859375 -6.5 C 3.316406 -6.5 3.722656 -6.414062 4.078125 -6.25 C 4.441406 -6.082031 4.722656 -5.847656 4.921875 -5.546875 C 5.117188 -5.242188 5.21875 -4.898438 5.21875 -4.515625 L 3.90625 -4.515625 C 3.90625 -4.804688 3.8125 -5.035156 3.625 -5.203125 C 3.4375 -5.367188 3.175781 -5.453125 2.84375 -5.453125 C 2.519531 -5.453125 2.269531 -5.378906 2.09375 -5.234375 C 1.914062 -5.097656 1.828125 -4.921875 1.828125 -4.703125 C 1.828125 -4.492188 1.929688 -4.316406 2.140625 -4.171875 C 2.347656 -4.035156 2.65625 -3.90625 3.0625 -3.78125 C 3.8125 -3.550781 4.359375 -3.269531 4.703125 -2.9375 C 5.046875 -2.601562 5.21875 -2.1875 5.21875 -1.6875 C 5.21875 -1.132812 5.007812 -0.695312 4.59375 -0.375 C 4.175781 -0.0625 3.609375 0.09375 2.890625 0.09375 C 2.398438 0.09375 1.953125 0.00390625 1.546875 -0.171875 C 1.140625 -0.359375 0.828125 -0.609375 0.609375 -0.921875 C 0.398438 -1.234375 0.296875 -1.597656 0.296875 -2.015625 L 1.625 -2.015625 C 1.625 -1.304688 2.046875 -0.953125 2.890625 -0.953125 C 3.210938 -0.953125 3.457031 -1.015625 3.625 -1.140625 C 3.800781 -1.273438 3.890625 -1.457031 3.890625 -1.6875 Z M 3.890625 -1.6875 "/></g></g></g><g fill="#35323d" fill-opacity="1"><g transform="translate(36.57765, 53.560018)"><g><path d="M 5.84375 -3.0625 C 5.84375 -2.425781 5.726562 -1.867188 5.5 -1.390625 C 5.28125 -0.921875 4.960938 -0.554688 4.546875 -0.296875 C 4.128906 -0.0351562 3.648438 0.09375 3.109375 0.09375 C 2.578125 0.09375 2.101562 -0.03125 1.6875 -0.28125 C 1.269531 -0.539062 0.945312 -0.90625 0.71875 -1.375 C 0.5 -1.851562 0.382812 -2.40625 0.375 -3.03125 L 0.375 -3.34375 C 0.375 -3.96875 0.488281 -4.519531 0.71875 -5 C 0.945312 -5.488281 1.269531 -5.859375 1.6875 -6.109375 C 2.101562 -6.367188 2.578125 -6.5 3.109375 -6.5 C 3.640625 -6.5 4.113281 -6.367188 4.53125 -6.109375 C 4.945312 -5.859375 5.269531 -5.488281 5.5 -5 C 5.726562 -4.519531 5.84375 -3.96875 5.84375 -3.34375 Z M 4.5 -3.34375 C 4.5 -4.019531 4.378906 -4.53125 4.140625 -4.875 C 3.898438 -5.226562 3.554688 -5.40625 3.109375 -5.40625 C 2.660156 -5.40625 2.316406 -5.234375 2.078125 -4.890625 C 1.835938 -4.546875 1.71875 -4.039062 1.71875 -3.375 L 1.71875 -3.0625 C 1.71875 -2.40625 1.835938 -1.894531 2.078125 -1.53125 C 2.316406 -1.175781 2.660156 -1 3.109375 -1 C 3.554688 -1 3.898438 -1.171875 4.140625 -1.515625 C 4.378906 -1.859375 4.5 -2.363281 4.5 -3.03125 Z M 4.5 -3.34375 "/></g></g></g><g fill="#35323d" fill-opacity="1"><g transform="translate(48.202409, 53.560018)"><g><path d="M 5.609375 -2.140625 C 5.554688 -1.441406 5.300781 -0.894531 4.84375 -0.5 C 4.382812 -0.101562 3.78125 0.09375 3.03125 0.09375 C 2.207031 0.09375 1.554688 -0.179688 1.078125 -0.734375 C 0.609375 -1.296875 0.375 -2.054688 0.375 -3.015625 L 0.375 -3.40625 C 0.375 -4.03125 0.484375 -4.578125 0.703125 -5.046875 C 0.921875 -5.515625 1.226562 -5.875 1.625 -6.125 C 2.03125 -6.375 2.503906 -6.5 3.046875 -6.5 C 3.785156 -6.5 4.378906 -6.300781 4.828125 -5.90625 C 5.273438 -5.507812 5.535156 -4.953125 5.609375 -4.234375 L 4.296875 -4.234375 C 4.265625 -4.648438 4.148438 -4.953125 3.953125 -5.140625 C 3.753906 -5.328125 3.453125 -5.421875 3.046875 -5.421875 C 2.597656 -5.421875 2.265625 -5.257812 2.046875 -4.9375 C 1.828125 -4.625 1.71875 -4.132812 1.71875 -3.46875 L 1.71875 -2.984375 C 1.71875 -2.296875 1.820312 -1.789062 2.03125 -1.46875 C 2.238281 -1.144531 2.570312 -0.984375 3.03125 -0.984375 C 3.4375 -0.984375 3.738281 -1.078125 3.9375 -1.265625 C 4.132812 -1.453125 4.25 -1.742188 4.28125 -2.140625 Z M 5.609375 -2.140625 "/></g></g></g><g fill="#35323d" fill-opacity="1"><g transform="translate(59.501849, 53.560018)"><g><path d="M 1.984375 0 L 0.65625 0 L 0.65625 -6.40625 L 1.984375 -6.40625 Z M 1.984375 0 "/></g></g></g><g fill="#35323d" fill-opacity="1"><g transform="translate(67.534904, 53.560018)"><g><path d="M 4.1875 -1.328125 L 1.875 -1.328125 L 1.4375 0 L 0.03125 0 L 2.421875 -6.40625 L 3.640625 -6.40625 L 6.046875 0 L 4.640625 0 Z M 2.234375 -2.390625 L 3.828125 -2.390625 L 3.03125 -4.796875 Z M 2.234375 -2.390625 "/></g></g></g><g fill="#35323d" fill-opacity="1"><g transform="translate(79.001397, 53.560018)"><g><path d="M 1.890625 -1.0625 L 4.703125 -1.0625 L 4.703125 0 L 0.578125 0 L 0.578125 -6.40625 L 1.890625 -6.40625 Z M 1.890625 -1.0625 "/></g></g></g></svg>